# xmcd
#
# Track frame offsets:
#	150
#	13294
#	24740
#	36555
#	48636
#	62495
#	74895
#	90064
#	105491
#	118674
#
# Disc length: 1756 seconds
#
# Revision: 2
# Processed by: cddbd v1.5.1PL0 Copyright (c) Steve Scherf et al.
# Submitted via: audiograbber 1.83.01
#
DISCID=8a06da0a
DTITLE=Various Artist - Country Favorites 70's
DYEAR=1900
DGENRE=Country
TTITLE0=Lynn Anderson - Rose garden
TTITLE1=Freddy Fender - Before the last teardrop falls
TTITLE2=Donna Fargo - Funny Face
TTITLE3=Johnny Paycheck - Take This Job and Shove It
TTITLE4=Barbara Fairchild - Teddy bear Song
TTITLE5=Charlie Rich - Behind Closed Doors
TTITLE6=Charlie Rich and Janie Fricke - On My Knees
TTITLE7=Cal Smith - Country Bumpkin
TTITLE8=Margo Smith - Don't Break the Heart That Loves You
TTITLE9=Faron Young - It's Four in the Morning
EXTD=
EXTT0=
EXTT1=
EXTT2=
EXTT3=
EXTT4=
EXTT5=
EXTT6=
EXTT7=
EXTT8=
EXTT9=
PLAYORDER=
